<svg class="hammer" width="124.22" height="41.217" version="1.1" viewBox="-50 -50 124.22 41.217" xmlns="http://www.w3.org/2000/svg">
 <defs>
  <linearGradient id="a" x1="-51.591" x2="-28.078" y1="-9.1495" y2="-9.1495" gradientTransform="translate(2.6951 -6.628e-5)" gradientUnits="userSpaceOnUse">
   <stop stop-color="#363636" stop-opacity="0" offset="0"/>
   <stop stop-color="#464646" offset=".28383"/>
   <stop stop-color="#464646" offset=".71967"/>
   <stop stop-color="#515151" stop-opacity="0" offset="1"/>
  </linearGradient>
 </defs>
 <g transform="translate(1.3476 -6.628e-5)">
  <path d="m-40.453-34.749 1.126 4.064 2.707-2.765z" fill="#949494" stroke-linecap="round" stroke-linejoin="round"/>
  <path d="m-34.215-48.796-6.238 14.047 3.833 1.299 6.238-14.048z" fill="#828282" stroke-linecap="round" stroke-linejoin="round"/>
  <g stroke="#696969">
   <path d="m-46.172 7.746-1.169 2.634" stroke-width="8.6"/>
   <path d="m-49.289 10.547c-1.635-1.019-2.055-1.885-0.96-1.978 1.095-0.094 3.219 0.626 4.855 1.644 1.635 1.019 2.055 1.885 0.96 1.978-1.095 0.094-3.219-0.626-4.855-1.644" fill="#696969" stroke-linecap="round" stroke-linejoin="round"/>
   <path d="m-48.119 7.913c1.635 1.019 3.759 1.738 4.855 1.645 1.095-0.094 0.675-0.959-0.961-1.978-1.635-1.019-3.759-1.739-4.854-1.645-1.096 0.093-0.675 0.959 0.96 1.978" fill="#696969" stroke-linecap="round" stroke-linejoin="round"/>
  </g>
  <g stroke="#707070">
   <path d="m-45.49 6.21-0.389 0.878" stroke-width="8.1"/>
   <path d="m-47.827 7.254c-1.635-1.019-2.055-1.884-0.96-1.978s3.219 0.626 4.855 1.645c1.635 1.019 2.055 1.884 0.96 1.978s-3.219-0.626-4.855-1.645" fill="#707070" stroke-linecap="round" stroke-linejoin="round" stroke-width=".5"/>
   <path d="m-47.437 6.376c1.636 1.019 3.76 1.739 4.855 1.645s0.675-0.959-0.96-1.978c-1.636-1.019-3.76-1.738-4.855-1.645-1.095 0.094-0.675 0.959 0.96 1.978" fill="#707070" stroke-linecap="round" stroke-linejoin="round" stroke-width=".5"/>
  </g>
  <g stroke-linecap="round" stroke-linejoin="round">
   <path d="m-34.215-48.796 3.465-1.204 0.368 2.502z" fill="#949494"/>
   <path d="m-14.431-19.626-2.707 2.766-22.189-13.825 2.707-2.765z" fill="#828282"/>
   <path d="m-48.652-34.048 8.199-0.701 1.126 4.064-8.199 0.701z" fill="#828282"/>
   <path d="m-8.1934-33.673-6.238 14.047-22.189-13.824 6.238-14.048z" fill="#696969"/>
  </g>
  <path d="m-33.696-20.349-11.696 26.339" stroke="#a05922" stroke-width="7.6"/>
  <g stroke-linecap="round" stroke-linejoin="round">
   <path d="m-47.339 6.157c-1.636-1.019-2.056-1.885-0.961-1.978 1.096-0.094 3.22 0.626 4.855 1.645 1.636 1.019 2.056 1.884 0.96 1.978-1.095 0.093-3.219-0.626-4.854-1.645" fill="#a05922"/>
   <path d="m-35.644-20.183c1.636 1.019 3.76 1.739 4.855 1.645 1.095-0.093 0.675-0.959-0.96-1.978-1.636-1.019-3.76-1.738-4.855-1.645-1.095 0.094-0.675 0.959 0.96 1.978" fill="#a05922"/>
   <path d="m-48.652-34.048 8.199-0.701 6.238-14.047-8.199 0.701z" fill="#696969"/>
   <path d="m-30.75-50 0.368 2.502 22.189 13.825-0.368-2.503z" fill="#828282"/>
   <path d="m-42.414-48.095 8.199-0.701 3.465-1.204-8.199 0.701z" fill="#828282"/>
  </g>
  <g stroke="#707070">
   <path d="m-32.429-23.203-1.17 2.634" stroke-width="8.1"/>
   <path d="m-35.546-20.402c-1.636-1.019-2.056-1.884-0.96-1.978 1.095-0.094 3.219 0.626 4.854 1.645 1.636 1.019 2.056 1.884 0.961 1.978-1.096 0.094-3.22-0.626-4.855-1.645" fill="#707070" stroke-linecap="round" stroke-linejoin="round" stroke-width=".5"/>
   <path d="m-34.377-23.036c1.636 1.019 3.76 1.739 4.855 1.645 1.096-0.094 0.675-0.959-0.96-1.978-1.636-1.019-3.76-1.739-4.855-1.645s-0.675 0.959 0.96 1.978" fill="#707070" stroke-linecap="round" stroke-linejoin="round" stroke-width=".5"/>
  </g>
  <g stroke-linecap="round" stroke-linejoin="round">
   <path d="m-13.673-18.064-3.465 1.204 2.707-2.766z" fill="#949494"/>
   <path d="m-17.138-16.86-8.199 0.701-22.189-13.825 8.199-0.701z" fill="#696969"/>
   <path d="m-48.652-34.048 1.126 4.064-0.367-2.502z" fill="#949494"/>
   <path d="m-7.4354-32.112-6.238 14.048-0.758-1.562 6.238-14.047z" fill="#828282"/>
   <path d="m-42.414-48.095-6.238 14.047 0.759 1.562 6.237-14.048z" fill="#828282"/>
   <path d="m-7.4354-32.112-1.126-4.064 0.368 2.503z" fill="#949494"/>
   <path d="m-8.5614-36.176-8.199 0.701-22.189-13.824 8.199-0.701z" fill="#696969"/>
   <path d="m-42.414-48.095 3.465-1.204-2.707 2.765z" fill="#949494"/>
   <path d="m-13.673-18.064-8.199 0.701-3.465 1.204 8.199-0.701z" fill="#828282"/>
   <path d="m-47.893-32.486 0.367 2.502 22.189 13.825-0.367-2.503z" fill="#828282"/>
   <path d="m-13.673-18.064-8.199 0.701 6.238-14.048 8.199-0.701z" fill="#696969"/>
   <path d="m-41.656-46.534-6.237 14.048 22.189 13.824 6.237-14.047z" fill="#696969"/>
   <path d="m-29.32-37.096-4.583-1.66c-0.076-0.027-0.156 8e-3 -0.196 0.085 0 0-2.462 4.809-2.462 4.809-0.058 0.113-5e-3 0.262 0.107 0.298l1.296 0.415c0.122 0.039 0.171 0.21 0.093 0.322 0 0-1.205 1.722-1.205 1.722-0.081 0.116-0.024 0.294 0.104 0.324l0.828 0.197c0.128 0.03 0.185 0.208 0.104 0.324 0 0-1.899 2.701-1.899 2.701-0.119 0.169 0.056 0.411 0.22 0.305l0.11-0.071 6.849-5.661c0.115-0.094 0.083-0.304-0.054-0.354l-1.312-0.48c-0.123-0.045-0.166-0.224-0.078-0.33 0 0 2.156-2.615 2.156-2.615 0.088-0.107 0.046-0.287-0.078-0.331z" fill="#ecb018" stroke="#ecb018"/>
   <path d="m-7.4354-32.112-8.199 0.701-1.126-4.064 8.199-0.701z" fill="#828282"/>
   <path d="m-16.76-35.475-2.707 2.766-22.189-13.825 2.707-2.765z" fill="#828282"/>
   <path d="m-21.872-17.363-3.465 1.204-0.367-2.503z" fill="#949494"/>
   <path d="m-15.634-31.411-6.238 14.048-3.832-1.299 6.237-14.047z" fill="#828282"/>
   <path d="m-15.634-31.411-1.126-4.064-2.707 2.766z" fill="#949494"/>
  </g>
 </g>
 <path d="m-48.896-9.1496h42.808z" fill-opacity="0" stroke="url(#a)" stroke-width=".73309px"/>
 <rect x="-56.802" y="-8.7915" width="39.156" height="24.2" rx="0" ry="0" fill="#fffefe" stroke-width="2.5395" style="paint-order:normal"/>
 <g fill="#222" stroke="#222" stroke-width=".1">
  <path d="m18.446-19.634q-0.36721 0-0.53412-0.13353-0.13353-0.13353-0.33383-0.56751l-8.9132-21.231q-0.06677-0.2003-0.06677-0.30044 0-0.46736 0.50074-0.46736h1.7359q0.43398 0 0.60089 0.16691 0.2003 0.13353 0.33383 0.46736l7.2774 17.726 7.2774-17.726q0.13353-0.33383 0.33383-0.46736 0.2003-0.16691 0.60089-0.16691h1.7693q0.50074 0 0.50074 0.46736 0 0.10015-0.06677 0.30044l-8.9132 21.231q-0.2003 0.43398-0.36721 0.56751-0.13353 0.13353-0.53412 0.13353z"/>
  <path d="m35.174-38.996q-0.63427 0-1.0015-0.36721-0.36721-0.40059-0.36721-0.9681v-0.66765q0-0.5675 0.36721-0.93472 0.36721-0.40059 1.0015-0.40059h0.93472q0.63427 0 1.0015 0.40059 0.36721 0.36721 0.36721 0.93472v0.66765q0 0.5675-0.36721 0.9681-0.36721 0.36721-1.0015 0.36721zm-0.03338 19.362q-0.53412 0-0.7678-0.23368-0.23368-0.26706-0.23368-0.7678v-14.021q0-0.50074 0.23368-0.73442 0.23368-0.26706 0.7678-0.26706h1.0015q1.0349 0 1.0349 1.0015v14.021q0 1.0015-1.0349 1.0015z"/>
  <path d="m44.157-19.634q-1.0015 0-1.0015-1.0015v-20.697q0-1.0015 1.0015-1.0015h1.0349q0.53412 0 0.7678 0.26706 0.23368 0.23368 0.23368 0.73442v20.697q0 0.50074-0.23368 0.7678-0.23368 0.23368-0.7678 0.23368z"/>
  <path d="m52.606-19.634q-0.30044 0-0.46736-0.06677-0.16691-0.06677-0.33383-0.26706l-6.4429-6.7767q-0.30044-0.30044-0.43398-0.60089-0.13353-0.30044-0.13353-0.73442 0-0.46736 0.13353-0.7678 0.13353-0.30044 0.43398-0.56751l6.2092-5.9087q0.23368-0.23368 0.36721-0.26706 0.16691-0.06677 0.56751-0.06677h2.0697q0.16691 0 0.26706 0.13353 0.10015 0.10015 0.10015 0.26706 0 0.23368-0.16691 0.36721l-7.1439 6.8101 7.3776 7.678q0.16691 0.23368 0.16691 0.40059 0 0.16691-0.10015 0.26706t-0.26706 0.10015z"/>
  <path d="m66.425-19.133q-2.5037 0-4.5734-0.86795-2.0697-0.86795-3.3383-2.704-1.2352-1.8694-1.2352-4.6402 0-4.3397 2.2366-6.5764 2.27-2.2366 6.4095-2.2366 4.1061 0 6.1758 2.1699 2.0697 2.1365 2.0697 6.3761 0 0.90133-0.86795 0.90133h-13.119q0 2.6372 1.7359 4.0059 1.7359 1.3687 4.8071 1.3687 2.9043 0 5.0074-1.3019 0.2003-0.10015 0.30044-0.10015 0.2003 0 0.30044 0.23368l0.63427 1.1016q0.06677 0.10015 0.06677 0.26706 0 0.23368-0.26706 0.40059-1.3353 0.83457-2.8709 1.2018-1.5022 0.40059-3.4718 0.40059zm4.9406-9.6142q0-2.5037-1.3687-3.8724-1.3687-1.4021-4.0727-1.4021-2.7708 0-4.273 1.4355-1.4688 1.4355-1.4688 3.839z"/>
 </g>
</svg>
